<svg id="Capa_1" enable-background="new 0 0 512 512" height="512" viewBox="0 0 512 512" width="512" xmlns="http://www.w3.org/2000/svg"><path d="m497 441.3h-67.861c.948 4.857 1.459 9.869 1.459 15s-.511 10.143-1.459 15h67.861c8.284 0 15-6.716 15-15s-6.716-15-15-15z"/><circle cx="127.466" cy="456.3" r="48.199"/><path d="m400.601 7.5c-8.284 0-15 6.716-15 15v185.359l-67.627-154.573c-11.234-25.675-41.984-45.786-70.007-45.786h-144.6c-30.419 0-55.167 24.747-55.167 55.166v202.356c-27.14 3.437-48.2 26.654-48.2 54.711v96.399c0 28.91 22.359 52.682 50.69 54.97-.923-4.796-1.424-9.741-1.424-14.803 0-43.12 35.081-78.2 78.2-78.2 43.118 0 78.197 35.08 78.197 78.2 0 5.131-.511 10.143-1.459 15h71.454c-.947-4.857-1.459-9.869-1.459-15 0-43.12 35.08-78.2 78.2-78.2 25.946 0 48.968 12.713 63.2 32.226v-387.825c.002-8.284-6.714-15-14.998-15zm-58.054 257.066-75.889-75.887 12.116-12.116c5.858-5.857 5.858-15.356 0-21.213-5.857-5.857-15.355-5.857-21.213 0l-22.718 22.718c-.001.002-.003.004-.005.005s-.003.003-.005.005l-22.717 22.718c-5.858 5.857-5.858 15.355 0 21.213 2.929 2.929 6.768 4.393 10.606 4.393 3.839 0 7.678-1.465 10.606-4.393l12.116-12.116 54.674 54.674h-157.651v-113.534c0-8.284-6.716-15-15-15s-15 6.716-15 15v113.533h-34.267v-201.9c0-13.877 11.29-25.166 25.167-25.166h144.6c16.17 0 36.04 12.996 42.522 27.812l87.176 199.255h-35.118z"/><circle cx="352.4" cy="456.3" r="48.199"/></svg>